<svg width="24" height="24" viewBox="0 0 24 24" fill="none" xmlns="http://www.w3.org/2000/svg">
<path d="M17.02 21.292L13.54 19.552C12.57 19.072 11.44 19.072 10.47 19.552L6.98997 21.292C3.99997 22.782 0.849974 19.572 2.40997 16.622L3.22997 15.082C3.33997 14.872 3.51997 14.702 3.73997 14.602L16.38 8.90201C16.9 8.67201 17.51 8.882 17.77 9.382L21.58 16.622C23.14 19.572 20 22.782 17.02 21.292Z" fill="black"/>
<path d="M15.6 7.69L7.32002 11.42C6.39002 11.84 5.45002 10.84 5.93002 9.94L8.97002 4.17C10.26 1.72 13.76 1.72 15.05 4.17L16.12 6.21C16.4 6.76 16.16 7.44 15.6 7.69Z" fill="black"/>
</svg>
