<svg width="24" height="24" viewBox="0 0 24 24" fill="none" xmlns="http://www.w3.org/2000/svg">
<path d="M6.98003 2.708L10.46 4.448C11.43 4.928 12.56 4.928 13.53 4.448L17.01 2.708C20 1.218 23.15 4.428 21.59 7.378L20.77 8.918C20.66 9.128 20.48 9.298 20.26 9.398L7.62003 15.098C7.10003 15.328 6.49003 15.118 6.23003 14.618L2.42003 7.378C0.860026 4.42801 4.00003 1.218 6.98003 2.708Z" fill="black"/>
<path d="M8.39998 16.31L16.68 12.58C17.61 12.16 18.55 13.16 18.07 14.06L15.03 19.83C13.74 22.28 10.24 22.28 8.94998 19.83L7.87998 17.79C7.59998 17.24 7.83998 16.56 8.39998 16.31Z" fill="black"/>
</svg>
